<svg xmlns="http://www.w3.org/2000/svg" width="114" height="27.471"><path data-name="Trazado 22" d="M6.066 20.138c.334 2.4 2.167 3.334 5.1 3.334a11.239 11.239 0 005.3-1.333v4.236a17.4 17.4 0 01-6.367 1.1c-5.734 0-10.1-3.367-10.1-9.1s3.9-9.067 9.3-9.067c6.433 0 8.767 4.567 8.767 9.734v1.1zm6.6-3.4c0-2-.933-3.633-3.334-3.633-2.167 0-3.2 1.633-3.334 3.633z" fill="#fff"/><path data-name="Trazado 23" d="M38.987 27.071h-5.534v-3.1h-.067c-.767 1.934-3.2 3.5-5.967 3.5-5.167 0-7.933-4.267-7.933-9.4 0-4.267 2.633-8.767 7.433-8.767a6.914 6.914 0 015.967 2.633h.067V2.071h6.034zm-9.667-4.2c2 0 3.667-1.9 3.667-4.433 0-2.634-1.466-4.534-3.667-4.534-2.334 0-3.634 2-3.634 4.3 0 2.766 1.367 4.667 3.634 4.667" fill="#fff"/><path data-name="Rectángulo 1829" fill="#fff" d="M41.492 9.704h6v17.367h-6z"/><path data-name="Trazado 24" d="M49.949 9.704h5.466v3.2h.067c1.2-2.5 3.6-3.6 6.334-3.6a5.467 5.467 0 015.434 3.334 6.875 6.875 0 016.167-3.334c5 0 6.133 2.833 6.133 7.534v10.236h-6v-9.333c0-1.967-.7-3.434-2.4-3.434-2.134 0-3.4 1.7-3.4 5.434v7.333h-6v-9.333c0-1.967-.7-3.434-2.4-3.434-2.133 0-3.4 1.7-3.4 5.434v7.333h-6z" fill="#fff"/><path data-name="Trazado 25" d="M95.166 14.674a6.586 6.586 0 00-3.634-.966 4.464 4.464 0 00-4.6 4.8 4.68 4.68 0 004.933 4.567 8.217 8.217 0 003.733-.833l.133 4.466a16.166 16.166 0 01-4.9.767c-5.734 0-10.1-3.333-10.1-9.067 0-5.766 4.367-9.1 10.1-9.1a10.779 10.779 0 014.767.967z" fill="#fff"/><path data-name="Trazado 26" d="M108.5 27.074c-.034-.933-.134-1.833-.134-2.734h-.067a5.956 5.956 0 01-5.5 3.133c-3.433 0-6.5-1.7-6.5-5.466 0-5.3 5.766-5.934 8.966-5.934a17.579 17.579 0 012.8.233c-.033-2.367-1.8-3-3.967-3a11.3 11.3 0 00-5.534 1.3l-.1-4.067a17.959 17.959 0 016.934-1.233c4.434 0 8.267 1.9 8.267 7.2v6.468a21.255 21.255 0 00.334 4.1zm-4.134-3.6a3.91 3.91 0 003.7-4.1c-.767-.034-1.633-.1-2.533-.1-2.034 0-3.634.633-3.634 2.3 0 1.2 1.067 1.9 2.467 1.9" fill="#fff"/><path data-name="Trazado 27" d="M49.305 0a7.851 7.851 0 00-7.851 7.851A7.851 7.851 0 0049.305 0" fill="#b1c449"/></svg>